<svg xmlns="http://www.w3.org/2000/svg" xmlns:xlink="http://www.w3.org/1999/xlink" width="300" zoomAndPan="magnify" viewBox="0 0 224.87999 149.999998" height="200" preserveAspectRatio="xMidYMid meet" version="1.0"><defs><clipPath id="6481842092"><path d="M 62 23.226562 L 157.734375 23.226562 L 157.734375 102 L 62 102 Z M 62 23.226562 " clip-rule="nonzero"/></clipPath><clipPath id="0660ffb775"><path d="M 97 106 L 113 106 L 113 121.425781 L 97 121.425781 Z M 97 106 " clip-rule="nonzero"/></clipPath><clipPath id="7153f5538a"><path d="M 126 106 L 142 106 L 142 121.425781 L 126 121.425781 Z M 126 106 " clip-rule="nonzero"/></clipPath></defs><g clip-path="url(#6481842092)"><path fill="#000000" d="M 116.414062 60.765625 C 121.808594 60.765625 127.121094 63.125 131.660156 67.472656 C 132.855469 68.523438 132.941406 70.371094 131.84375 71.519531 C 130.742188 72.679688 128.902344 72.679688 127.808594 71.527344 C 124.105469 67.96875 120.214844 66.359375 116.414062 66.359375 C 112.621094 66.359375 108.738281 67.96875 105.035156 71.527344 C 104.5 72.054688 103.773438 72.34375 103.023438 72.324219 C 100.523438 72.261719 99.355469 69.183594 101.191406 67.472656 C 105.722656 63.125 111.027344 60.765625 116.414062 60.765625 Z M 128.039062 49.726562 C 130.269531 49.726562 132.082031 51.546875 132.082031 53.785156 C 132.082031 56.023438 130.269531 57.839844 128.039062 57.839844 C 125.808594 57.839844 124.003906 56.023438 124.003906 53.785156 C 124 51.546875 125.808594 49.726562 128.039062 49.726562 Z M 104.804688 49.726562 C 107.035156 49.726562 108.84375 51.546875 108.84375 53.785156 C 108.84375 56.023438 107.035156 57.839844 104.804688 57.839844 C 102.570312 57.839844 100.761719 56.023438 100.761719 53.785156 C 100.761719 51.546875 102.570312 49.726562 104.804688 49.726562 Z M 67.417969 23.1875 C 61.976562 23.34375 61.113281 31.570312 66.378906 33.007812 L 73.246094 35.4375 L 81.328125 77.683594 C 82.292969 82.738281 83.894531 87.316406 86.132812 91.25 C 89.417969 97.046875 95.128906 101.328125 102.171875 101.328125 L 137.140625 101.328125 C 143.453125 101.441406 143.453125 91.316406 137.140625 91.433594 L 102.171875 91.433594 C 97.191406 90.796875 95.128906 88.28125 93.304688 84.59375 L 139.464844 84.59375 C 143.695312 84.59375 146.0625 80.824219 147.105469 76.460938 L 157.203125 42.019531 C 157.742188 36.355469 154.75 35.238281 149.515625 35.238281 L 83.199219 35.289062 L 81.417969 29.828125 C 80.9375 28.199219 79.707031 26.945312 78.164062 26.507812 Z M 67.417969 23.1875 " fill-opacity="1" fill-rule="nonzero"/></g><g clip-path="url(#0660ffb775)"><path fill="#000000" d="M 104.554688 106.371094 C 100.421875 106.371094 97.070312 109.734375 97.070312 113.878906 C 97.070312 118.027344 100.421875 121.390625 104.554688 121.390625 C 108.6875 121.390625 112.035156 118.027344 112.035156 113.878906 C 112.035156 109.734375 108.6875 106.371094 104.554688 106.371094 Z M 104.554688 106.371094 " fill-opacity="1" fill-rule="nonzero"/></g><g clip-path="url(#7153f5538a)"><path fill="#000000" d="M 134.375 106.371094 C 130.246094 106.371094 126.898438 109.734375 126.898438 113.878906 C 126.898438 118.027344 130.25 121.390625 134.375 121.390625 C 138.507812 121.390625 141.859375 118.027344 141.859375 113.878906 C 141.859375 109.734375 138.507812 106.371094 134.375 106.371094 Z M 134.375 106.371094 " fill-opacity="1" fill-rule="nonzero"/></g></svg>